# xmcd CD database file
#
# Track frame offsets:
#	150
#	31332
#	63787
#	89395
#	104457
#	125092
#	152942
#	169218
#	194995
#	230227
#
# Disc length: 3637 seconds
#
# Revision: 0
# Processed by: cddbd v1.5.1PL0 Copyright (c) Steve Scherf et al.
# Submitted via: CDex 1.51
#
DISCID=920e330a
DTITLE=Dizzy Gillespie - Rhythmstick
DYEAR=2001
DGENRE=Jazz
TTITLE0=Caribe
TTITLE1=Friday Night At The Cadillac Club
TTITLE2=Quilombo
TTITLE3=Barbados
TTITLE4=Waiting For Angela
TTITLE5=Nana
TTITLE6=Softly As In A Morning Sunrise
TTITLE7=Colo De Rio
TTITLE8=Palisades In Blue
TTITLE9=Wamba
EXTD=YEAR: 2001
EXTT0=
EXTT1=
EXTT2=
EXTT3=
EXTT4=
EXTT5=
EXTT6=
EXTT7=
EXTT8=
EXTT9=
PLAYORDER=
